<?xml version="1.0" encoding="utf-8"?>
<!-- Generator: Adobe Illustrator 16.0.0, SVG Export Plug-In . SVG Version: 6.00 Build 0)  -->
<!DOCTYPE svg PUBLIC "-//W3C//DTD SVG 1.1//EN" "http://www.w3.org/Graphics/SVG/1.1/DTD/svg11.dtd">
<svg version="1.1" id="Layer_1" xmlns="http://www.w3.org/2000/svg" xmlns:xlink="http://www.w3.org/1999/xlink" x="0px" y="0px"
	 width="21px" height="16px" viewBox="0 0 21 16" enable-background="new 0 0 21 16" xml:space="preserve">
<g id="Shape_13">
	<g>
		<path fill-rule="evenodd" clip-rule="evenodd" fill="#FFFFFF" d="M19.125,0C18.069,0,3.743,0,2.156,0S0,0.853,0,1.818
			c0,0.965,0,11.175,0,12.272S0.754,16,1.781,16s16.065,0,17.25,0S21,15.241,21,14.182s0-11.267,0-12.363
			C21,0.721,20.181,0,19.125,0z M19.5,14c0,0.251-0.129,0.546-0.469,0.546s-16.728,0-16.969,0S1.5,14.496,1.5,14s0-8.454,0-8.454
			s5.104,4,6.656,5.182c1.552,1.181,2.979,1.237,4.688,0C14.553,9.489,19.5,5.546,19.5,5.546S19.5,13.749,19.5,14z M17.719,5
			c-1.039,0.876-4.525,3.544-5.813,4.545c-1.287,1.003-2.087,0.596-2.813,0C8.368,8.95,3.771,5.566,3.188,5S1.5,3.612,1.5,1.909
			c0-0.34,0.276-0.455,0.563-0.455c0.285,0,16.504,0,16.875,0S19.5,1.551,19.5,2.091C19.5,3.081,18.758,4.124,17.719,5z"/>
	</g>
</g>
</svg>
