<?xml version="1.0" encoding="utf-8"?>
<!-- Generator: Adobe Illustrator 16.0.0, SVG Export Plug-In . SVG Version: 6.00 Build 0)  -->
<!DOCTYPE svg PUBLIC "-//W3C//DTD SVG 1.1//EN" "http://www.w3.org/Graphics/SVG/1.1/DTD/svg11.dtd">
<svg version="1.1" id="Layer_1" xmlns="http://www.w3.org/2000/svg" xmlns:xlink="http://www.w3.org/1999/xlink" x="0px" y="0px"
	 width="49.129px" height="38.063px" viewBox="0 0 49.129 38.063" enable-background="new 0 0 49.129 38.063" xml:space="preserve">
<g id="Shape_6">
	<g>
		<path fill-rule="evenodd" clip-rule="evenodd" fill="#FFFFFF" d="M38.822,1.531c-4.584,0-23.732,0-29.391,0
			C3.771,1.531,0,6.022,0,10.719c0,4.695,0,11.251,0,15.969c0,6.042,3.91,9.844,9.871,9.844c5.959,0,23.174,0,29.389,0
			s9.871-4.549,9.871-9.406c0-4.858,0-8.917,0-15.969S43.404,1.531,38.822,1.531z M47.156,27.125c0,3.172-2.332,7.438-7.676,7.438
			s-25.059,0-29.172,0S1.974,32.2,1.974,27.125c0-5.076,0-8.531,0-8.531h45.182C47.156,18.594,47.156,23.953,47.156,27.125z
			 M47.156,16.625H1.974v-4.813h45.182V16.625z M1.974,9.844c0,0,0.709-6.344,7.457-6.344c7.049,0,24.844,0,30.268,0
			c4.199,0,7.457,3.683,7.457,6.344H1.974z M35.97,31.5c0.771,0,7.109,0,7.676,0s1.098-0.344,1.098-1.094c0-0.751,0-6.699,0-7.219
			s-0.303-1.094-1.316-1.094s-6.771,0-7.457,0s-1.098,0.141-1.098,1.094c0,0.952,0,6.848,0,7.438
			C34.873,31.214,35.197,31.5,35.97,31.5z M36.628,24.063h6.141v5.688h-6.141V24.063z M4.826,29.531c0.908,0,22.645,0,23.688,0
			s1.316-0.191,1.316-1.094s0-2.576,0-3.281c0-0.706-0.434-1.094-1.316-1.094s-22.998,0-23.688,0s-1.098,0.18-1.098,0.875
			s0,2.983,0,3.719S3.916,29.531,4.826,29.531z M5.484,26.031h22.371v1.75H5.484V26.031z"/>
	</g>
</g>
</svg>
