<?xml version="1.0" encoding="utf-8"?>
<!-- Generator: Adobe Illustrator 16.0.0, SVG Export Plug-In . SVG Version: 6.00 Build 0)  -->
<!DOCTYPE svg PUBLIC "-//W3C//DTD SVG 1.1//EN" "http://www.w3.org/Graphics/SVG/1.1/DTD/svg11.dtd">
<svg version="1.1" id="Layer_1" xmlns="http://www.w3.org/2000/svg" xmlns:xlink="http://www.w3.org/1999/xlink" x="0px" y="0px"
	 width="49.129px" height="38.063px" viewBox="0 0 49.129 38.063" enable-background="new 0 0 49.129 38.063" xml:space="preserve">
<g id="Shape_7">
	<g>
		<path fill-rule="evenodd" clip-rule="evenodd" fill="#FFFFFF" d="M35.688,0c-7.309,0-14.582,0-22.027,0S0.139,6.645,0.139,13.344
			c0,5.791,0,5.981,0,10.938s4.174,13.781,13.74,13.781c9.564,0,12.51,0,21.154,0c8.643,0,13.957-6.776,13.957-14
			c0-7.225,0-4.221,0-10.719C48.991,6.845,42.995,0,35.688,0z M13.661,1.969c3.385,0,18.465,0,22.027,0
			c3.561,0,6.541,2.625,6.541,2.625S31.825,20.781,24.565,20.781S6.901,4.594,6.901,4.594C7.805,3.647,10.276,1.969,13.661,1.969z
			 M2.102,24.063c0-4.927,0-6.838,0-10.5c0-3.663,2.178-6.521,3.271-7.656c0,0,5.748,9.374,12.213,13.781
			c0,0-7.832,6.622-12.213,12.688C5.374,32.375,2.102,28.989,2.102,24.063z M35.469,36.094c-3.607,0-18.293,0-22.027,0
			c-3.732,0-6.541-2.406-6.541-2.406S13.491,25.201,19.114,21c0,0,4.869,3.908,10.902,0c0,0,4.844,3.354,12.213,12.688
			C42.229,33.688,39.077,36.094,35.469,36.094z M47.028,24.063c0,4.65-2.381,7.168-3.49,8.313c0,0-5.625-7.161-11.775-12.688
			c0,0,6.83-5.624,11.994-13.781c0,0,3.271,3.046,3.271,7.438S47.028,19.412,47.028,24.063z"/>
	</g>
</g>
</svg>
