<?xml version="1.0" encoding="utf-8"?>
<!-- Generator: Adobe Illustrator 16.0.0, SVG Export Plug-In . SVG Version: 6.00 Build 0)  -->
<!DOCTYPE svg PUBLIC "-//W3C//DTD SVG 1.1//EN" "http://www.w3.org/Graphics/SVG/1.1/DTD/svg11.dtd">
<svg version="1.1" id="Layer_1" xmlns="http://www.w3.org/2000/svg" xmlns:xlink="http://www.w3.org/1999/xlink" x="0px" y="0px"
	 width="49.129px" height="38.063px" viewBox="0 0 49.129 38.063" enable-background="new 0 0 49.129 38.063" xml:space="preserve">
<g id="Shape_5">
	<g>
		<path fill-rule="evenodd" clip-rule="evenodd" fill="#FFFFFF" d="M24.565,6.219c-4.389,0-7.996,3.312-7.996,7.969
			s3.566,8.125,7.842,8.125s8.148-3.217,8.148-7.969S28.952,6.219,24.565,6.219z M24.411,20.906c-2.492,0-6.457-2.221-6.457-6.563
			c0-4.343,3.285-6.719,6.611-6.719c3.324,0,6.609,2.57,6.609,6.719C31.174,18.777,26.903,20.906,24.411,20.906z M24.565,1.531
			c-7.465,0-13.99,5.554-13.99,14.531c0,0,7.344,14.491,8.916,17.188c1.572,2.695,3.686,3.281,5.074,3.281
			c1.387,0,3.758-0.828,5.381-3.75c1.621-2.922,8.609-17.031,8.609-17.031C38.555,6.469,31.708,1.531,24.565,1.531z M28.868,31.844
			c-1.277,2.337-2.736,3.281-4.303,3.281c-1.568,0-2.943-1.167-4.152-3.281c-1.207-2.114-4.762-8.778-8.455-16.094
			c0-8.091,6.629-12.813,12.607-12.813c8.289,0,12.605,7.349,12.605,12.813C37.17,15.75,30.147,29.507,28.868,31.844z"/>
	</g>
</g>
</svg>
