<?xml version="1.0" encoding="utf-8"?>
<!-- Generator: Adobe Illustrator 16.0.0, SVG Export Plug-In . SVG Version: 6.00 Build 0)  -->
<!DOCTYPE svg PUBLIC "-//W3C//DTD SVG 1.1//EN" "http://www.w3.org/Graphics/SVG/1.1/DTD/svg11.dtd">
<svg version="1.1" id="Layer_1" xmlns="http://www.w3.org/2000/svg" xmlns:xlink="http://www.w3.org/1999/xlink" x="0px" y="0px"
	 width="49.129px" height="38.063px" viewBox="0 0 49.129 38.063" enable-background="new 0 0 49.129 38.063" xml:space="preserve">
<g id="Shape_4">
	<g>
		<path fill-rule="evenodd" clip-rule="evenodd" fill="#FFFFFF" d="M14.533,17.719c2.318,0,5.453-1.671,5.453-5.688
			C19.986,9.284,17.154,7,14.533,7s-5.016,2.205-5.016,5.469S12.214,17.719,14.533,17.719z M14.533,8.969
			c1.439,0,3.49,0.868,3.49,3.281s-1.793,3.5-3.271,3.5s-3.49-1.112-3.49-3.281C11.261,10.299,13.093,8.969,14.533,8.969z
			 M27.4,12.031c1.455,0,10.943,0,12.213,0c1.611,0,1.73-1.969,0-1.969s-10.652,0-12.213,0S25.945,12.031,27.4,12.031z
			 M22.166,20.781c-0.582-0.288-3.887-2.188-7.633-2.188c-3.416,0-6.871,1.994-7.414,2.188s-0.654,0.666-0.654,1.094
			c0,0.427,0,1.636,0,3.719c0,2.082,1.984,4.594,5.234,4.594c3.248,0,2.979,0,5.67,0s5.451-1.364,5.451-4.594
			c0-3.23,0-3.175,0-3.719S22.75,21.069,22.166,20.781z M21.076,25.594c0,1.227-1.383,2.625-2.617,2.625s-6.109,0-7.197,0
			s-2.834-0.924-2.834-2.406s0-3.5,0-3.5s3.543-1.969,6.105-1.969c3.246,0,6.543,1.969,6.543,1.969S21.076,24.366,21.076,25.594z
			 M42.449,17.5c-1.73,0-15.016,0-16.576,0c-1.559,0-1.453,1.969,0,1.969c1.455,0,15.307,0,16.576,0
			C44.058,19.469,44.177,17.5,42.449,17.5z M39.394,2.625c-4.738,0-23.234,0-29.877,0S0.14,8.092,0.14,11.594
			c0,3.501,0,9.022,0,14.656c0,5.633,4.564,9.188,9.377,9.188s25.27,0,30.314,0c5.043,0,9.158-3.951,9.158-9.188
			c0-5.237,0-9.632,0-14.875S44.132,2.625,39.394,2.625z M47.246,25.375c0,6.381-4.73,8.313-8.723,8.313s-23.334,0-28.352,0
			s-8.287-3.989-8.287-7.875c0-3.887,0-8.014,0-13.563s4.891-7.875,8.287-7.875s22.764,0,28.568,0c5.807,0,8.506,4.138,8.506,8.094
			S47.246,18.993,47.246,25.375z M42.449,22.531c-1.73,0-15.016,0-16.576,0c-1.559,0-1.453,1.969,0,1.969c1.455,0,15.307,0,16.576,0
			C44.058,24.5,44.177,22.531,42.449,22.531z M42.449,27.344c-1.73,0-15.016,0-16.576,0c-1.559,0-1.453,1.969,0,1.969
			c1.455,0,15.307,0,16.576,0C44.058,29.313,44.177,27.344,42.449,27.344z"/>
	</g>
</g>
</svg>
