<?xml version="1.0" encoding="utf-8"?>
<!-- Generator: Adobe Illustrator 16.0.0, SVG Export Plug-In . SVG Version: 6.00 Build 0)  -->
<!DOCTYPE svg PUBLIC "-//W3C//DTD SVG 1.1//EN" "http://www.w3.org/Graphics/SVG/1.1/DTD/svg11.dtd">
<svg version="1.1" id="Layer_1" xmlns="http://www.w3.org/2000/svg" xmlns:xlink="http://www.w3.org/1999/xlink" x="0px" y="0px"
	 width="19.998px" height="20.002px" viewBox="0 0 19.998 20.002" enable-background="new 0 0 19.998 20.002" xml:space="preserve">
<g id="Shape_1">
	<g>
		<path fill="#F5F5FF" d="M11.875,10.004c0,0,7.25-7.344,7.73-7.824c0.481-0.481,0.564-1.215,0-1.778
			c-0.563-0.564-1.406-0.46-1.865,0c-0.46,0.459-7.73,7.735-7.73,7.735S2.53,0.741,2.101,0.312c-0.428-0.428-1.168-0.431-1.688,0.09
			c-0.521,0.52-0.512,1.266,0,1.778c0.512,0.512,7.729,7.824,7.729,7.824s-7.619,7.714-7.818,7.913c-0.2,0.199-0.618,1.07,0,1.689
			c0.618,0.618,1.439,0.427,1.865,0c0.427-0.427,7.819-7.735,7.819-7.735s7.121,7.037,7.73,7.646
			c0.608,0.608,1.333,0.621,1.865,0.089c0.532-0.533,0.458-1.409,0-1.867S11.875,10.004,11.875,10.004z"/>
	</g>
</g>
</svg>
